<?xml version="1.0" encoding="utf-8"?>
<!-- Generator: Adobe Illustrator 25.2.0, SVG Export Plug-In . SVG Version: 6.00 Build 0)  -->
<svg version="1.1" id="Layer_1" xmlns="http://www.w3.org/2000/svg" xmlns:xlink="http://www.w3.org/1999/xlink" x="0px" y="0px"
	 viewBox="0 0 128 128" style="enable-background:new 0 0 128 128;" xml:space="preserve">
<style type="text/css">
	.st0{fill:#5C3CF5;}
</style>
<g>
	<g>
		<path class="st0" d="M90.39,30.26h-23.2v12.16c0,3.36,2.72,6.08,6.08,6.08h17.12c0.96,0,1.73,0.77,1.73,1.73v6.94h18.23v-6.94
			C110.35,39.22,101.39,30.26,90.39,30.26z"/>
		<path class="st0" d="M92.11,81.96c0,0.96-0.77,1.73-1.72,1.73H37.62c-0.96,0-1.73-0.77-1.73-1.73V50.23
			c0-0.96,0.77-1.73,1.73-1.73h17.12c3.36,0,6.08-2.72,6.08-6.08V30.26H37.62c-11.03,0-19.96,8.94-19.96,19.96v31.73
			c0,7.32,3.96,13.73,9.85,17.21h0.01l23.69,16.95c1.4,1,3.35,0,3.35-1.72v-12.47V98.4c0-1.82,2.18-2.77,3.51-1.52l3.78,3.55
			c1.03,0.96,2.38,1.5,3.79,1.5h24.76c11,0,19.96-8.95,19.96-19.96v-8.51H92.11V81.96z"/>
		
			<ellipse transform="matrix(0.9871 -0.1602 0.1602 0.9871 -9.9521 8.7313)" class="st0" cx="49.18" cy="66.09" rx="7.24" ry="7.24"/>
		<circle class="st0" cx="78.82" cy="66.09" r="7.24"/>
		<circle class="st0" cx="64" cy="18.57" r="7.08"/>
	</g>
</g>
</svg>
